<svg xmlns="http://www.w3.org/2000/svg" viewBox="0 0 512 512" width="512" height="512">
  <defs>
    <linearGradient id="bg" x1="0%" y1="0%" x2="100%" y2="100%">
      <stop offset="0%" stop-color="#1a0a2e"/>
      <stop offset="50%" stop-color="#0d1a2e"/>
      <stop offset="100%" stop-color="#0F0F1A"/>
    </linearGradient>
    <linearGradient id="key" x1="0%" y1="0%" x2="0%" y2="100%">
      <stop offset="0%" stop-color="#7C3AED"/>
      <stop offset="100%" stop-color="#5B21B6"/>
    </linearGradient>
  </defs>
  <rect width="512" height="512" rx="100" fill="url(#bg)"/>
  <!-- Piano keys -->
  <g transform="translate(56, 160)">
    <rect x="0" y="0" width="50" height="192" rx="6" fill="#F5F0E8" stroke="#ccc" stroke-width="1"/>
    <rect x="57" y="0" width="50" height="192" rx="6" fill="#F5F0E8" stroke="#ccc" stroke-width="1"/>
    <rect x="114" y="0" width="50" height="192" rx="6" fill="url(#key)"/>
    <rect x="171" y="0" width="50" height="192" rx="6" fill="#F5F0E8" stroke="#ccc" stroke-width="1"/>
    <rect x="228" y="0" width="50" height="192" rx="6" fill="#F5F0E8" stroke="#ccc" stroke-width="1"/>
    <rect x="285" y="0" width="50" height="192" rx="6" fill="#F5F0E8" stroke="#ccc" stroke-width="1"/>
    <rect x="342" y="0" width="50" height="192" rx="6" fill="#F5F0E8" stroke="#ccc" stroke-width="1"/>
    <!-- Black keys -->
    <rect x="36" y="0" width="34" height="118" rx="4" fill="#1A1A1A"/>
    <rect x="93" y="0" width="34" height="118" rx="4" fill="#1A1A1A"/>
    <rect x="207" y="0" width="34" height="118" rx="4" fill="#1A1A1A"/>
    <rect x="264" y="0" width="34" height="118" rx="4" fill="#1A1A1A"/>
    <rect x="321" y="0" width="34" height="118" rx="4" fill="#1A1A1A"/>
  </g>
  <!-- Stars -->
  <text x="256" y="130" text-anchor="middle" font-size="72" fill="#F59E0B">&#9733; &#9733; &#9733;</text>
  <!-- Title -->
  <text x="256" y="430" text-anchor="middle" font-family="sans-serif" font-weight="800" font-size="48" fill="#E8E8F0">Petit Maestro</text>
</svg>
