<svg xmlns="http://www.w3.org/2000/svg" viewBox="0 0 192 192" width="192" height="192">
  <defs>
    <linearGradient id="bg" x1="0%" y1="0%" x2="100%" y2="100%">
      <stop offset="0%" stop-color="#1a0a2e"/>
      <stop offset="50%" stop-color="#0d1a2e"/>
      <stop offset="100%" stop-color="#0F0F1A"/>
    </linearGradient>
    <linearGradient id="key" x1="0%" y1="0%" x2="0%" y2="100%">
      <stop offset="0%" stop-color="#7C3AED"/>
      <stop offset="100%" stop-color="#5B21B6"/>
    </linearGradient>
  </defs>
  <rect width="192" height="192" rx="40" fill="url(#bg)"/>
  <!-- Piano keys -->
  <g transform="translate(24, 60)">
    <!-- White keys -->
    <rect x="0" y="0" width="18" height="72" rx="3" fill="#F5F0E8" stroke="#ccc" stroke-width="0.5"/>
    <rect x="21" y="0" width="18" height="72" rx="3" fill="#F5F0E8" stroke="#ccc" stroke-width="0.5"/>
    <rect x="42" y="0" width="18" height="72" rx="3" fill="url(#key)" rx="3"/>
    <rect x="63" y="0" width="18" height="72" rx="3" fill="#F5F0E8" stroke="#ccc" stroke-width="0.5"/>
    <rect x="84" y="0" width="18" height="72" rx="3" fill="#F5F0E8" stroke="#ccc" stroke-width="0.5"/>
    <rect x="105" y="0" width="18" height="72" rx="3" fill="#F5F0E8" stroke="#ccc" stroke-width="0.5"/>
    <rect x="126" y="0" width="18" height="72" rx="3" fill="#F5F0E8" stroke="#ccc" stroke-width="0.5"/>
    <!-- Black keys -->
    <rect x="13" y="0" width="12" height="44" rx="2" fill="#1A1A1A"/>
    <rect x="34" y="0" width="12" height="44" rx="2" fill="#1A1A1A"/>
    <rect x="76" y="0" width="12" height="44" rx="2" fill="#1A1A1A"/>
    <rect x="97" y="0" width="12" height="44" rx="2" fill="#1A1A1A"/>
    <rect x="118" y="0" width="12" height="44" rx="2" fill="#1A1A1A"/>
  </g>
  <!-- Stars -->
  <text x="96" y="48" text-anchor="middle" font-size="28" fill="#F59E0B">&#9733; &#9733; &#9733;</text>
</svg>
